<?xml version="1.0" encoding="utf-8"?>
<!-- Generator: Adobe Illustrator 26.0.3, SVG Export Plug-In . SVG Version: 6.00 Build 0)  -->
<svg version="1.1" id="Слой_3" xmlns="http://www.w3.org/2000/svg" xmlns:xlink="http://www.w3.org/1999/xlink" x="0px" y="0px"
	 viewBox="0 0 1024 1024" style="enable-background:new 0 0 1024 1024;" xml:space="preserve">
<style type="text/css">
	.st0{fill:none;stroke:#FCFCFC;stroke-width:25;stroke-miterlimit:10;}
</style>
<path class="st0" d="M805.91,322.14c5.26,13.47,14.36,162.67,23.98,261.05c6.58,67.35,19.74,100.42,50.01,166.55
	c21.2,46.31,53.78,65.77,56.99,80.11c1.24,2.4,1.93,5.09,1.93,7.94v19.42c0,10.19-8.88,18.45-19.83,18.45H639.3
	C626.42,908.53,562.76,964,522.98,964s-103.44-55.47-116.32-88.34H123.03c-10.95,0-19.83-8.26-19.83-18.45v-19.42
	c0-5.62,2.7-10.65,6.96-14.03c0.74-0.58,1.36-1.28,1.9-2.02c10-13.88,35.41-33.8,52.99-72.2c30.27-66.13,43.43-99.19,50.01-166.55
	c10.01-102.56,22.37-254.72,25-262.07c0.09-0.01,0.18-0.02,0.28-0.02c15.23-99.1,89.21-180.54,188.06-212.83
	c16.4-33.37,52.58-56.56,94.59-56.56s78.19,23.19,94.59,56.56C716.42,140.35,790.68,223.03,805.91,322.14L805.91,322.14z"/>
<line class="st0" x1="198.25" y1="670.75" x2="844.29" y2="670.75"/>
<path class="st0" d="M326.26,346.24c0-82.28,66.58-148.86,148.86-148.86"/>
<line class="st0" x1="205.62" y1="875.5" x2="851.66" y2="875.5"/>
</svg>
