<?xml version="1.0" encoding="iso-8859-1"?>
<!-- Uploaded to: SVG Repo, www.svgrepo.com, Generator: SVG Repo Mixer Tools -->
<svg fill="#FFFF" height="800px" width="800px" version="1.1" id="Layer_1" xmlns="http://www.w3.org/2000/svg"
	 viewBox="0 0 512 512" xml:space="preserve">
<g>
	<g>
		<path d="M501.801,66.805h-19.888V36.207c0-5.633-4.566-10.199-10.199-10.199c-5.633,0-10.199,4.566-10.199,10.199v30.598h-87.458
			V36.207c0-5.633-4.566-10.199-10.199-10.199c-5.633,0-10.199,4.566-10.199,10.199v30.598h-87.458V36.207
			c0-5.633-4.566-10.199-10.199-10.199c-5.633,0-10.199,4.566-10.199,10.199v30.598h-87.458V36.207
			c0-5.633-4.566-10.199-10.199-10.199s-10.199,4.566-10.199,10.199v30.598H10.199C4.566,66.805,0,71.371,0,77.004v398.789
			c0,5.633,4.566,10.199,10.199,10.199h491.602c5.633,0,10.199-4.566,10.199-10.199V77.004
			C512,71.371,507.434,66.805,501.801,66.805z M491.602,465.594H20.398V87.203h471.203V465.594z"/>
	</g>
</g>
<g>
	<g>
		<path d="M40.287,26.008c-5.633,0-10.199,4.566-10.199,10.199v8.159c0,5.633,4.566,10.199,10.199,10.199
			c5.633,0,10.199-4.566,10.199-10.199v-8.159C50.486,30.574,45.92,26.008,40.287,26.008z"/>
	</g>
</g>
<g>
	<g>
		<path d="M450.805,119.639H61.195c-5.633,0-10.199,4.566-10.199,10.199v294.141c0,5.633,4.566,10.199,10.199,10.199h389.61
			c5.633,0,10.199-4.566,10.199-10.199V129.838C461.004,124.205,456.438,119.639,450.805,119.639z M128.891,413.781H71.394v-51.44
			h57.497V413.781z M128.891,341.942H71.394v-54.679h57.497V341.942z M128.891,266.864H71.394v-54.835h57.497V266.864z
			 M128.891,191.631H71.394v-51.594h57.497V191.631z M206.964,413.781H149.29v-51.44h57.674V413.781z M206.964,341.942H149.29
			v-54.679h57.674V341.942z M206.964,266.864H149.29v-54.835h57.674V266.864z M206.964,191.631H149.29v-51.594h57.674V191.631z
			 M284.637,413.781h-57.275v-51.44h57.275V413.781z M284.637,341.942h-57.275v-54.679h57.275V341.942z M284.637,266.864h-57.275
			v-54.835h57.275V266.864z M284.637,191.631h-57.275v-51.594h57.275V191.631z M361.91,413.781h-56.874v-51.44h56.874V413.781z
			 M361.91,341.942h-56.874v-54.679h56.874V341.942z M361.91,266.864h-56.874v-54.835h56.874V266.864z M361.91,191.631h-56.874
			v-51.594h56.874V191.631z M440.606,413.78h-58.298v-51.44h58.298V413.78z M440.606,341.942h-58.298v-54.679h58.298V341.942z
			 M440.606,266.864h-58.298v-54.835h58.298V266.864z M440.606,191.631h-58.298v-51.594h58.298V191.631z"/>
	</g>
</g>
<g>
	<g>
		<path d="M475.283,93.323H325.355c-5.633,0-10.199,4.566-10.199,10.199c0,5.633,4.566,10.199,10.199,10.199h149.928
			c5.633,0,10.199-4.566,10.199-10.199C485.482,97.889,480.916,93.323,475.283,93.323z"/>
	</g>
</g>
<g>
	<g>
		<path d="M280.478,93.323h-14.279c-5.633,0-10.199,4.566-10.199,10.199c0,5.633,4.566,10.199,10.199,10.199h14.279
			c5.633,0,10.199-4.566,10.199-10.199C290.677,97.889,286.111,93.323,280.478,93.323z"/>
	</g>
</g>
</svg>