<?xml version="1.0" encoding="utf-8"?>
<!-- Generator: Adobe Illustrator 26.0.3, SVG Export Plug-In . SVG Version: 6.00 Build 0)  -->
<svg version="1.1" id="Слой_1" xmlns="http://www.w3.org/2000/svg" xmlns:xlink="http://www.w3.org/1999/xlink" x="0px" y="0px"
	 viewBox="0 0 1024 1024" style="enable-background:new 0 0 1024 1024;" xml:space="preserve">
<style type="text/css">
	.st0{fill:#FFFFFF;}
	.st1{fill:#FFFFFF;stroke:#FFFFFF;}
</style>
<g>
	<path class="st0" d="M512,99c55.77,0,109.85,10.92,160.75,32.45c49.18,20.8,93.35,50.58,131.28,88.52
		c37.94,37.94,67.72,82.11,88.52,131.28C914.08,402.15,925,456.23,925,512s-10.92,109.85-32.45,160.75
		c-20.8,49.18-50.58,93.35-88.52,131.28c-37.94,37.94-82.11,67.72-131.28,88.52C621.85,914.08,567.77,925,512,925
		s-109.85-10.92-160.75-32.45c-49.18-20.8-93.35-50.58-131.28-88.52c-37.94-37.94-67.72-82.11-88.52-131.28
		C109.92,621.85,99,567.77,99,512s10.92-109.85,32.45-160.75c20.8-49.18,50.58-93.35,88.52-131.28
		c37.94-37.94,82.11-67.72,131.28-88.52C402.15,109.92,456.23,99,512,99 M512,74C270.1,74,74,270.1,74,512s196.1,438,438,438
		s438-196.1,438-438S753.9,74,512,74L512,74z"/>
</g>
<g>
	<path class="st1" d="M485.36,654.54c-21.36-16.41-32.03-35.94-32.03-58.59c0-15.36,3.77-29.88,11.33-43.55
		c7.55-13.67,24.48-35.22,50.78-64.65c20.83-23.17,36.19-43.23,46.09-60.16c9.89-16.92,14.84-33.72,14.84-50.39
		c0-25.78-9.51-47.2-28.52-64.26c-19.01-17.05-42.19-25.59-69.53-25.59c-15.37,0-32.03,3.52-50,10.55
		c-7.29,7.03-13.81,16.8-19.53,29.3l-14.84,29.69l-4.69,3.12l-17.19-1.95l-2.34-5.47l30.08-90.62
		c30.47-19.79,63.67-29.69,99.61-29.69c27.6,0,52.93,5.02,75.98,15.04c23.05,10.03,41.14,24.94,54.3,44.73
		c13.15,19.79,19.73,42.06,19.73,66.8c0,16.41-2.67,31.77-8.01,46.09c-5.34,14.33-13.15,28.32-23.44,41.99
		c-10.29,13.67-30.02,33.53-59.18,59.57c-18.49,16.41-32.62,29.82-42.38,40.23c-9.77,10.42-17.13,20.51-22.07,30.27
		c-4.95,9.77-7.42,18.69-7.42,26.76c0,13.54,5.21,26.04,15.62,37.5l-0.78,5.47l-10.16,7.81H485.36z M492.78,705.32
		c13.02,0,24.08,4.56,33.2,13.67c9.11,9.12,13.67,20.18,13.67,33.2c0,12.76-4.56,23.7-13.67,32.81
		c-9.12,9.11-20.18,13.67-33.2,13.67c-12.76,0-23.77-4.56-33.01-13.67c-9.25-9.11-13.87-20.05-13.87-32.81
		c0-13.28,4.69-24.41,14.06-33.4S480.28,705.32,492.78,705.32z"/>
</g>
</svg>
