<?xml version="1.0" encoding="utf-8"?>
<!-- Generator: Adobe Illustrator 26.0.3, SVG Export Plug-In . SVG Version: 6.00 Build 0)  -->
<svg version="1.1" xmlns="http://www.w3.org/2000/svg" xmlns:xlink="http://www.w3.org/1999/xlink" x="0px" y="0px"
	 viewBox="0 0 1024 1024" style="enable-background:new 0 0 1024 1024;" xml:space="preserve">
<style type="text/css">
	.st0{fill:#4F4F4F;}
	.st1{display:none;}
	.st2{display:inline;}
	.st3{fill:#FFE4FE;}
	.st4{display:inline;fill:none;stroke:#FFE4FE;stroke-width:40;stroke-miterlimit:10;}
	.st5{display:none;fill:none;stroke:#FFE4FE;stroke-width:30;stroke-miterlimit:10;}
	.st6{fill:none;stroke:#FFE4FE;stroke-width:30;stroke-miterlimit:10;}
</style>
<g id="Слой_4">
</g>
<g id="Слой_3">
	<rect class="st0" width="1024" height="1024"/>
</g>
<g id="Слой_1" class="st1">
	<g class="st2">
		<path class="st3" d="M511,125c46.48,0,90.17,18.1,123.04,50.96C666.9,208.83,685,252.52,685,299s-18.1,90.17-50.96,123.04
			C601.17,454.9,557.48,473,511,473s-90.17-18.1-123.04-50.96C355.1,389.17,337,345.48,337,299s18.1-90.17,50.96-123.04
			C420.83,143.1,464.52,125,511,125 M511,85c-118.19,0-214,95.81-214,214s95.81,214,214,214s214-95.81,214-214S629.19,85,511,85
			L511,85z"/>
	</g>
	<path class="st4" d="M933,933c0-232.78-173.75-338-422-338S91,700.22,91,933l0,0H933z"/>
</g>
<g id="Слой_2">
	<path class="st5" d="M446.86,327.74l-59.37,59.37L240.89,240.5l80.57-80.57c11.35-11.35,29.75-11.35,41.1,0l84.31,84.31
		C469.92,267.3,469.92,304.69,446.86,327.74z"/>
	<path class="st5" d="M828.61,715.51l-59.37,59.37L626.64,632.27L686,572.9c23.06-23.06,60.44-23.06,83.49,0l59.11,59.11
		C851.67,655.07,851.67,692.45,828.61,715.51z"/>
	<path class="st6" d="M819,715c25.85,24.67-88,159-210,133c-81.62-17.4-179-105-250.65-167.65C293.45,623.6,198.34,479.25,182,405
		c-26-118.13,105.44-209.05,124.5-189.5c39,40,17,13,120,121c13.29,13.94-85.41,83.91-80.5,114.5c6.09,37.96,88.93,113.36,110,132
		c26,23,101.94,96.07,144,108c36.61,10.38,104.71-86.35,120.5-71.5C821,714,775,673,819,715z"/>
	<g>
		<g>
			<path class="st3" d="M647.79,530.37c-0.62-26.18-5.75-52.87-19.17-75.67c-15.78-26.81-42.11-44.84-71.92-52.77
				c-14.01-3.73-28.62-5.4-43.1-5.75c-15.45-0.37-15.44,23.63,0,24c11.67,0.28,20.43,1.12,31.21,3.54
				c12.3,2.76,23.49,6.86,34.15,13.44c21.6,13.32,34.59,34.96,40.52,58.76c3.03,12.19,4,21.45,4.31,34.45
				C624.16,545.79,648.16,545.85,647.79,530.37L647.79,530.37z"/>
		</g>
	</g>
	<g>
		<g>
			<path class="st3" d="M708.54,530.7c-0.88-38.23-8.36-77.2-27.94-110.48c-22.96-39.04-61.29-65-104.66-76.49
				c-20.39-5.4-41.62-7.83-62.68-8.31c-15.45-0.35-15.45,23.65,0,24c34.82,0.8,70.18,7.29,100.94,26.21
				c33.77,20.78,54.52,54.72,63.77,92.25c1.2,4.85,2.22,9.74,3.09,14.66c0.84,4.75,1.32,8.16,1.72,11.63
				c1.01,8.81,1.56,17.66,1.76,26.53C684.89,546.12,708.89,546.18,708.54,530.7L708.54,530.7z"/>
		</g>
	</g>
	<g>
		<g>
			<path class="st3" d="M771.61,531.78c-1.13-50.48-10.94-101.96-36.56-146.03c-30.44-52.35-81.57-87.08-139.56-102.38
				c-27.12-7.15-55.3-10.39-83.31-11.02c-15.45-0.35-15.45,23.65,0,24c48.14,1.08,97.11,10.29,139.23,36.47
				c45.99,28.6,74.49,75.07,87.17,126.5c6.07,24.62,8.45,46.71,9.03,72.46C747.96,547.2,771.96,547.25,771.61,531.78L771.61,531.78z
				"/>
		</g>
	</g>
</g>
</svg>
