<?xml version="1.0" encoding="iso-8859-1"?>
<!-- Uploaded to: SVG Repo, www.svgrepo.com, Generator: SVG Repo Mixer Tools -->
<!DOCTYPE svg PUBLIC "-//W3C//DTD SVG 1.1//EN" "http://www.w3.org/Graphics/SVG/1.1/DTD/svg11.dtd">
<svg fill="#FFF" height="800px" width="800px" version="1.1" id="Capa_1" xmlns="http://www.w3.org/2000/svg"
	 viewBox="0 0 210.667 210.667" xml:space="preserve">
<path d="M206.667,183.606H4c-2.209,0-4-1.791-4-4V31.061c0-2.209,1.791-4,4-4h202.667c2.209,0,4,1.791,4,4v148.545
	C210.667,181.815,208.876,183.606,206.667,183.606z M11.612,175.606h191.055V35.061H8v132.843l78.114-78.113
	c0.75-0.75,1.768-1.171,2.828-1.171s2.078,0.421,2.828,1.171l26.946,26.947l45.339-45.339c1.561-1.562,4.096-1.562,5.656,0
	c1.563,1.563,1.563,4.095,0,5.657l-48.167,48.167c-0.75,0.75-1.768,1.171-2.828,1.171s-2.078-0.421-2.828-1.171L88.942,98.276
	L11.612,175.606z M179.217,87.811c-2.209,0-4-1.791-4-4v-19.25h-19.25c-2.209,0-4-1.791-4-4s1.791-4,4-4h23.25c2.209,0,4,1.791,4,4
	v23.25C183.217,86.02,181.426,87.811,179.217,87.811z"/>
</svg>